<?xml version="1.0" encoding="iso-8859-1"?>
<!DOCTYPE svg PUBLIC "-//W3C//DTD SVG 1.1//EN" "http://www.w3.org/Graphics/SVG/1.1/DTD/svg11.dtd">
<svg 
 version="1.1" xmlns="http://www.w3.org/2000/svg" xmlns:xlink="http://www.w3.org/1999/xlink" x="0px" y="0px" width="512px"
	 height="512px" viewBox="0 0 512 512" style="enable-background:new 0 0 512 512;" xml:space="preserve"
><g fill="#ffffff" id="7935ec95c421cee6d86eb22ecd10367e"><g fill="#ffffff"></g><path style="display: inline;" d="M256,43.083c117.403,0,212.917,95.513,212.917,212.917c0,117.403-95.514,212.917-212.917,212.917
		c-117.404,0-212.917-95.514-212.917-212.917C43.083,138.596,138.596,43.083,256,43.083 M256,0.5C114.893,0.5,0.5,114.893,0.5,256
		S114.893,511.5,256,511.5S511.5,397.107,511.5,256S397.107,0.5,256,0.5L256,0.5z M160.188,149.542
		c-29.396,0-53.229,23.833-53.229,53.229c0,29.396,23.833,53.229,53.229,53.229s53.229-23.833,53.229-53.229
		C213.417,173.374,189.584,149.542,160.188,149.542z M351.813,149.542c-29.396,0-53.229,23.833-53.229,53.229
		c0,29.396,23.833,53.229,53.229,53.229s53.229-23.833,53.229-53.229C405.042,173.374,381.209,149.542,351.813,149.542z
		 M412.548,388.366c7.677-2.97,11.494-11.603,8.525-19.279c-1.564-4.038-39.715-98.952-165.63-98.952
		c-144.573,0-165.071,100.57-165.262,101.589c-1.505,8.047,3.772,15.744,11.808,17.312c8.042,1.58,15.842-3.696,17.472-11.719
		c0.641-3.16,17.081-77.373,135.982-77.373c104.912,0,136.553,76.691,137.851,79.956l0,0c2.3,5.876,7.922,9.473,13.881,9.473
		C408.963,389.372,410.78,389.048,412.548,388.366z"></path></g></svg>