<?xml version="1.0" encoding="iso-8859-1"?>
<!DOCTYPE svg PUBLIC "-//W3C//DTD SVG 1.1//EN" "http://www.w3.org/Graphics/SVG/1.1/DTD/svg11.dtd">
<svg 
 version="1.1" xmlns="http://www.w3.org/2000/svg" xmlns:xlink="http://www.w3.org/1999/xlink" x="0px" y="0px" width="512px"
	 height="512px" viewBox="0 0 512 512" style="enable-background:new 0 0 512 512;" xml:space="preserve"
><g fill="#ffffff" id="7935ec95c421cee6d86eb22ecd1065a7"><g fill="#ffffff"></g><path style="display: inline;" d="M256,0.5C114.893,0.5,0.5,114.893,0.5,256S114.893,511.5,256,511.5S511.5,397.107,511.5,256
		S397.107,0.5,256,0.5z M256,43.083c117.403,0,212.917,95.513,212.917,212.917c0,22.246-3.443,43.702-9.802,63.875H52.885
		c-6.358-20.173-9.801-41.629-9.801-63.875C43.083,138.596,138.596,43.083,256,43.083z M256,468.917
		c-78.638,0-147.399-42.883-184.273-106.459h368.545C403.399,426.034,334.638,468.917,256,468.917z M106.958,202.771
		c0-29.397,23.833-53.229,53.229-53.229s53.229,23.833,53.229,53.229c0,29.396-23.833,53.229-53.229,53.229
		S106.958,232.167,106.958,202.771z M298.583,202.771c0-29.397,23.833-53.229,53.229-53.229s53.229,23.833,53.229,53.229
		c0,29.396-23.833,53.229-53.229,53.229S298.583,232.167,298.583,202.771z"></path></g></svg>