<?xml version="1.0" encoding="iso-8859-1"?>
<!DOCTYPE svg PUBLIC "-//W3C//DTD SVG 1.1//EN" "http://www.w3.org/Graphics/SVG/1.1/DTD/svg11.dtd">
<svg 
 version="1.1" xmlns="http://www.w3.org/2000/svg" xmlns:xlink="http://www.w3.org/1999/xlink" x="0px" y="0px" width="512px"
	 height="512px" viewBox="0 0 512 512" style="enable-background:new 0 0 512 512;" xml:space="preserve"
><g id="afcae5a789ccd549f9c6e2a2f80ef857"><g></g><g fill="#e64a19"><path style="display: inline;" d="M257.518,112.958l39.655,2.149c3.972,0.528,37.764,5.976,57.909,39.664
		c17.419,29.131,20.109,64.44,20.442,95.142c0.224,20.273,1.348,34.896,1.385,35.415c0.357,4.732,4.271,46.525,32.457,79.419
		H102.633c28.188-32.894,32.101-74.687,32.45-79.323c0.045-0.615,1.168-15.237,1.393-35.511
		c0.332-30.701,3.023-66.011,20.443-95.142c20.144-33.684,53.927-39.132,57.903-39.664l38.408-2.063 M300.459,12.159H256h-44.459
		l-0.537,60.527c0,0-57.495,4.815-90.635,60.231c-23.812,39.822-26.145,86.032-26.478,116.53
		c-0.208,19.088-1.265,32.673-1.265,32.673s-2.466,32.649-23.258,55.983C44.469,366.046,0.5,385.498,0.5,385.498v21.833h511v-21.833
		c0,0-43.968-19.452-68.87-47.394c-20.792-23.334-23.258-55.983-23.258-55.983s-1.056-13.585-1.265-32.673
		c-0.332-30.498-2.666-76.708-26.478-116.53c-33.139-55.416-90.636-60.231-90.636-60.231L300.459,12.159L300.459,12.159z
		 M170.833,437.992v0.004c0,34.153,38.13,61.845,85.167,61.845c47.037,0,85.166-27.691,85.166-61.845v-0.004H170.833z"></path></g></g></svg>