<?xml version="1.0" encoding="iso-8859-1"?>
<!DOCTYPE svg PUBLIC "-//W3C//DTD SVG 1.1//EN" "http://www.w3.org/Graphics/SVG/1.1/DTD/svg11.dtd">
<svg 
 version="1.1" xmlns="http://www.w3.org/2000/svg" xmlns:xlink="http://www.w3.org/1999/xlink" x="0px" y="0px" width="512px"
	 height="512px" viewBox="0 0 512 512" style="enable-background:new 0 0 512 512;" xml:space="preserve"
><g fill="#ffffff" id="7935ec95c421cee6d86eb22ecd10349f"><g fill="#ffffff"></g><path style="display: inline;" d="M256,43.083c117.403,0,212.917,95.513,212.917,212.917c0,117.403-95.514,212.917-212.917,212.917
		c-117.404,0-212.917-95.514-212.917-212.917C43.083,138.596,138.596,43.083,256,43.083 M256,0.5C114.893,0.5,0.5,114.893,0.5,256
		S114.893,511.5,256,511.5S511.5,397.107,511.5,256S397.107,0.5,256,0.5L256,0.5z M160.188,149.542
		c-29.396,0-53.229,23.833-53.229,53.229c0,29.396,23.833,53.229,53.229,53.229s53.229-23.833,53.229-53.229
		C213.417,173.374,189.584,149.542,160.188,149.542z M351.813,149.542c-29.396,0-53.229,23.833-53.229,53.229
		c0,29.396,23.833,53.229,53.229,53.229s53.229-23.833,53.229-53.229C405.042,173.374,381.209,149.542,351.813,149.542z
		 M423.235,319.717c1.514-8.088-3.817-15.877-11.91-17.391c-8.101-1.535-15.877,3.813-17.391,11.91
		c-0.146,0.77-15.853,77.261-135.964,77.261c-104.794,0-136.482-76.525-137.842-79.943c-2.982-7.644-11.585-11.419-19.258-8.479
		c-7.677,2.97-11.494,11.599-8.525,19.279c1.563,4.038,39.71,98.952,165.625,98.952
		C402.547,421.306,423.044,320.735,423.235,319.717z"></path></g></svg>